<svg width="104" height="104" viewBox="0 0 104 104" fill="none" xmlns="http://www.w3.org/2000/svg">
<path fill-rule="evenodd" clip-rule="evenodd" d="M52 8.66666C63.4927 8.66666 74.5147 13.2321 82.6413 21.3587C90.7679 29.4853 95.3334 40.5073 95.3334 52C95.3334 75.9323 75.9324 95.3333 52 95.3333C28.0677 95.3333 8.66669 75.9323 8.66669 52C8.66669 28.0676 28.0677 8.66666 52 8.66666ZM56.3334 56.3333H47.6667C36.9387 56.3333 27.7283 62.8307 23.7559 72.1056C30.0414 80.9195 40.3495 86.6667 52 86.6667C63.6505 86.6667 73.9587 80.9195 80.2442 72.105C76.2718 62.8307 67.0613 56.3333 56.3334 56.3333ZM52 21.6667C44.8203 21.6667 39 27.487 39 34.6667C39 41.8464 44.8203 47.6667 52 47.6667C59.1797 47.6667 65 41.8464 65 34.6667C65 27.487 59.1797 21.6667 52 21.6667Z" fill="#5196FF"/>
</svg>
